<svg width="26" height="26" viewBox="0 0 26 26" fill="none" xmlns="http://www.w3.org/2000/svg">
<path d="M13.8438 2.94072C11.2091 2.94072 9.06592 5.12467 9.06592 7.83197C9.06592 10.5393 11.1992 12.7232 13.8438 12.7232C16.4883 12.7232 18.6216 10.5393 18.6216 7.83197C18.6216 5.12467 16.4785 2.94072 13.8438 2.94072Z" stroke="#C2BDC9" stroke-width="0.8" stroke-miterlimit="10"/>
<path d="M11.7202 13.7599H19.9389V18.2183C19.9389 20.9659 17.7662 23.1901 15.0824 23.1901H6.87354V18.7316C6.87354 15.9841 9.04618 13.7599 11.73 13.7599H11.7202Z" fill="#C2BDC9" stroke="#C2BDC9" stroke-width="0.8" stroke-linecap="round" stroke-linejoin="round"/>
<path d="M13.8438 2.94072C11.2091 2.94072 9.06592 5.12467 9.06592 7.83197C9.06592 10.5393 11.1992 12.7232 13.8438 12.7232C16.4883 12.7232 18.6216 10.5393 18.6216 7.83197C18.6216 5.12467 16.4785 2.94072 13.8438 2.94072ZM16.4588 8.87866L16.2032 9.33156C15.7116 10.2072 14.8367 10.7305 13.8536 10.7305H13.8044C12.8017 10.7104 11.9169 10.1568 11.445 9.25104L11.2484 8.8686C11.1501 8.68744 11.2189 8.45596 11.4057 8.35532C11.5826 8.25468 11.8088 8.32513 11.9071 8.51635L12.1037 8.89879C12.4478 9.56304 13.0868 9.96561 13.8143 9.97567C14.5516 9.95554 15.2004 9.60329 15.5642 8.95918L15.8198 8.50628C15.9181 8.32513 16.1442 8.26474 16.3212 8.36538C16.4981 8.46603 16.5571 8.6975 16.4588 8.87866Z" fill="#C2BDC9"/>
</svg>
